<svg width="100%" height="100%" viewBox="0 0 24 24" fill="none" xmlns="http://www.w3.org/2000/svg">
  <path d="M4 6.75H20C20.414 6.75 20.75 6.414 20.75 6C20.75 5.586 20.414 5.25 20 5.25H4C3.586 5.25 3.25 5.586 3.25 6C3.25 6.414 3.586 6.75 4 6.75Z" fill="#000000"/>
  <path d="M8 12.75H20C20.414 12.75 20.75 12.414 20.75 12C20.75 11.586 20.414 11.25 20 11.25H8C7.586 11.25 7.25 11.586 7.25 12C7.25 12.414 7.586 12.75 8 12.75Z" fill="#000000"/>
  <path d="M14 18.75H20C20.414 18.75 20.75 18.414 20.75 18C20.75 17.586 20.414 17.25 20 17.25H14C13.586 17.25 13.25 17.586 13.25 18C13.25 18.414 13.586 18.75 14 18.75Z" fill="#000000"/>
</svg>
